<svg xmlns="http://www.w3.org/2000/svg" viewBox="0 0 512 512"><path d="M496 118c0-23.18-18.82-42-42-42H58c-23.18 0-42 18.82-42 42v336c0 23.18 18.82 42 42 42h396c23.18 0 42-18.82 42-42V118Z" style="fill:#ededf0;stroke:#393a49;stroke-width:32px;stroke-opacity:1;fill-opacity:1"/><path d="M160 143v353" style="fill:none;stroke:#393a49;stroke-width:32px;stroke-linecap:butt;stroke-opacity:1"/><path d="M352 143v353" style="fill:none;stroke:#393a49;stroke-width:32px;stroke-linecap:butt;stroke-opacity:1"/><path d="M226 16c0-8.831-7.169-16-16-16H110c-8.831 0-16 7.169-16 16v254c0 8.831 7.169 16 16 16h100c8.831 0 16-7.169 16-16V16Z" style="fill:#393a49;fill-opacity:1"/><path d="M418 16c0-8.831-7.169-16-16-16H302c-8.831 0-16 7.169-16 16v254c0 8.831 7.169 16 16 16h100c8.831 0 16-7.169 16-16V16Z" style="fill:#393a49;fill-opacity:1"/></svg>